<svg width="55" height="74" viewBox="0 0 55 74" fill="none" xmlns="http://www.w3.org/2000/svg">
<path fill-rule="evenodd" clip-rule="evenodd" d="M15.7511 15.8683L12.0491 19.7344L12.0402 40.8672L12.0312 62H15.702H19.3728L19.413 51.0645L19.4531 40.1291L28.0698 50.6348C32.8092 56.413 36.825 61.3123 36.9942 61.5223L37.3016 61.9039L40.018 59.4281C41.512 58.0664 42.7344 56.897 42.7344 56.8297C42.7344 56.7623 39.5352 52.7569 35.625 47.9284C31.7148 43.1002 28.4922 39.088 28.4636 39.0123C28.4345 38.9359 29.9933 38.8736 31.9792 38.872L35.5469 38.8689L39.2578 34.9736L42.9688 31.0783V25.425V19.7716L40.8306 17.4873C39.6545 16.2311 37.9859 14.4825 37.1225 13.6016L35.5525 12L27.5028 12.0011L19.4531 12.0022L15.7511 15.8683ZM32.3186 19.7592L35.625 19.8622V25.5422V31.222L28.8672 31.1814L22.1094 31.1406L20.7561 33.875L19.4028 36.6094L19.3889 28.1328L19.375 19.6562H24.1936C26.8438 19.6562 30.5 19.7027 32.3186 19.7592Z" fill="white"/>
</svg>
